<svg width="100" height="92" viewBox="0 0 100 92" fill="none" xmlns="http://www.w3.org/2000/svg">
<path d="M93.0054 41.7304C91.2386 56.0345 81.6728 69.0942 69.9227 75.4598C58.1726 81.825 44.6629 81.9268 33.1018 77.4404C24.8487 74.2381 17.2499 68.5706 12.8965 60.1091C8.54297 51.6477 7.90593 40.155 12.6235 31.0003C14.4056 27.5426 17.0488 24.3823 20.3526 23.1442C25.6283 21.1674 30.7831 24.482 35.1458 27.683C39.5087 30.8841 44.6513 34.2122 49.9322 32.2608C53.9902 30.7617 56.8855 26.5502 60.3157 23.516C66.1487 18.3569 74.0581 16.6133 80.594 19.0462C81.5017 19.3841 82.379 19.8011 83.2198 20.2895C89.7613 24.0888 93.4736 32.021 93.0551 40.7009L93.0054 41.7304Z" fill="#F2C94C"/>
<path d="M66.6937 47.712C67.0536 47.712 67.3451 47.4203 67.3451 47.0606V42.542C67.3451 41.2554 66.3422 40.1962 65.0618 40.1307C57.3358 39.7373 53.1835 36.5778 51.396 34.7295C50.9412 34.2591 50.3292 34 49.6726 34C49.0161 34 48.404 34.2591 47.9491 34.7295C46.1616 36.5778 42.0094 39.7374 34.2833 40.1308C33.003 40.1962 32 41.2554 32 42.542V60.7037C32 65.9349 34.8144 70.8097 39.3449 73.4257L46.715 77.68C47.6272 78.2069 48.6498 78.4703 49.6727 78.4703C50.6953 78.4703 51.7182 78.2068 52.6302 77.68L60.0003 73.4256C64.5308 70.8096 67.3452 65.9349 67.3452 60.7036V50.1006C67.3452 49.7409 67.0536 49.4492 66.6938 49.4492C66.334 49.4492 66.0424 49.7409 66.0424 50.1006V60.7037C66.0424 65.4709 63.4776 69.9134 59.3491 72.2972L51.9787 76.5517C50.5561 77.3734 48.7891 77.3733 47.3665 76.5516L39.9964 72.2972C35.8678 69.9133 33.303 65.4708 33.303 60.7036V42.542C33.303 41.9495 33.7628 41.4619 34.3498 41.4319C42.5221 41.0158 46.9649 37.6215 48.8859 35.6352C49.0931 35.4209 49.3725 35.3028 49.6727 35.3028C49.9729 35.3028 50.2523 35.4208 50.4595 35.6352C52.3804 37.6214 56.8232 41.0157 64.9955 41.4319C65.5826 41.462 66.0424 41.9496 66.0424 42.542V47.0604C66.0423 47.4203 66.334 47.712 66.6937 47.712Z" fill="black"/>
<path d="M36.1617 56.1383C35.8018 56.1383 35.5103 56.43 35.5103 56.7898V60.7037C35.5103 64.6849 37.652 68.3951 41.0997 70.3865L48.4701 74.6411C48.836 74.852 49.2519 74.9636 49.6728 74.9636C50.0938 74.9636 50.5097 74.852 50.8758 74.6409L58.2461 70.3864C61.6936 68.3951 63.8354 64.6849 63.8354 60.7037V44.9429C63.8354 44.1738 63.2615 43.5221 62.5009 43.427C56.658 42.6921 52.8142 40.4723 50.6186 38.7397C50.062 38.3001 49.2841 38.2999 48.7273 38.7396C46.5316 40.4724 42.6878 42.6922 36.8455 43.427C36.0844 43.5221 35.5104 44.1738 35.5104 44.9429V53.7496C35.5104 54.1094 35.8021 54.4011 36.1618 54.4011C36.5216 54.4011 36.8133 54.1094 36.8133 53.7496V44.9429C36.8133 44.8295 36.8966 44.7336 37.0074 44.7198C43.1479 43.9474 47.2089 41.5976 49.5346 39.7622C49.6161 39.698 49.7299 39.698 49.8114 39.7623C52.137 41.5976 56.198 43.9474 62.3389 44.7198C62.4493 44.7336 62.5326 44.8295 62.5326 44.9429V60.7037C62.5326 64.221 60.6404 67.4989 57.5947 69.2581L50.2247 73.5124C49.8883 73.7063 49.4574 73.7062 49.1214 73.5124L41.7513 69.2581C38.7054 67.4989 36.8133 64.221 36.8133 60.7037V56.7898C36.8131 56.43 36.5215 56.1383 36.1617 56.1383Z" fill="black"/>
<path d="M42.6538 54.9691C41.8107 54.9691 41.125 55.6549 41.125 56.4978V66.1489C41.125 66.9919 41.8108 67.6777 42.6538 67.6777H56.6921C57.5351 67.6777 58.2208 66.9919 58.2208 66.1489V61.4393C58.2208 61.0796 57.9291 60.7879 57.5694 60.7879C57.2095 60.7879 56.918 61.0796 56.918 61.4393V66.1489C56.918 66.2735 56.8166 66.3747 56.6921 66.3747H42.6538C42.5292 66.3747 42.4278 66.2734 42.4278 66.1489V56.4979C42.4278 56.3733 42.5292 56.2721 42.6538 56.2721H56.6921C56.8166 56.2721 56.918 56.3733 56.918 56.4979V58.3993C56.918 58.759 57.2096 59.0507 57.5694 59.0507C57.9292 59.0507 58.2208 58.759 58.2208 58.3993V56.4979C58.2208 55.7577 57.6919 55.1391 56.9923 54.9992V50.1809C56.9923 46.145 53.7088 42.8616 49.6729 42.8616C45.6369 42.8616 42.3534 46.1451 42.3534 50.1809V51.9357C42.3534 52.2955 42.6451 52.5871 43.0048 52.5871H45.8125C46.1723 52.5871 46.4639 52.2955 46.4639 51.9357V50.1809C46.4639 48.4115 47.9033 46.972 49.6728 46.972C51.4422 46.972 52.8817 48.4116 52.8817 50.1809V54.9692H42.6538V54.9691ZM49.6729 45.669C47.185 45.669 45.161 47.693 45.161 50.1809V51.2842H43.6563V50.1809C43.6563 46.8634 46.3554 44.1644 49.6729 44.1644C52.9903 44.1644 55.6894 46.8634 55.6894 50.1809V54.9691H54.1847V50.1809C54.1847 47.693 52.1607 45.669 49.6729 45.669Z" fill="black"/>
<path d="M49.6728 64.8701C50.0326 64.8701 50.3242 64.5784 50.3242 64.2186V61.961C51.1883 61.6846 51.8158 60.8742 51.8158 59.9196C51.8158 58.7379 50.8545 57.7766 49.6728 57.7766C48.4911 57.7766 47.5298 58.7379 47.5298 59.9196C47.5298 60.8742 48.1572 61.6847 49.0214 61.961V64.2186C49.0214 64.5784 49.3129 64.8701 49.6728 64.8701ZM49.6728 59.0795C50.136 59.0795 50.5129 59.4563 50.5129 59.9195C50.5129 60.3827 50.136 60.7596 49.6728 60.7596C49.2096 60.7596 48.8327 60.3827 48.8327 59.9195C48.8327 59.4563 49.2096 59.0795 49.6728 59.0795Z" fill="black"/>
</svg>
