<svg width="100" height="92" viewBox="0 0 100 92" fill="none" xmlns="http://www.w3.org/2000/svg">
<path d="M93.0054 41.7304C91.2386 56.0345 81.6728 69.0942 69.9227 75.4598C58.1726 81.825 44.6629 81.9268 33.1018 77.4404C24.8487 74.2381 17.2499 68.5706 12.8965 60.1091C8.54297 51.6477 7.90593 40.155 12.6235 31.0003C14.4056 27.5426 17.0488 24.3823 20.3526 23.1442C25.6283 21.1674 30.7831 24.482 35.1458 27.683C39.5087 30.8841 44.6513 34.2122 49.9322 32.2608C53.9902 30.7617 56.8855 26.5502 60.3157 23.516C66.1487 18.3569 74.0581 16.6133 80.594 19.0462C81.5017 19.3841 82.379 19.8011 83.2198 20.2895C89.7613 24.0888 93.4736 32.021 93.0551 40.7009L93.0054 41.7304Z" fill="#F2C94C"/>
<path d="M51.7895 36.293L49.1839 38.8986C49.0618 39.0207 48.9932 39.1864 48.9932 39.3591C48.9932 39.5319 49.0618 39.6975 49.1839 39.8197L51.7895 42.4253L52.7106 41.5042L51.3127 40.1063C54.724 40.4558 57.924 41.9238 60.414 44.2817C62.904 46.6396 64.5441 49.7549 65.0788 53.1422L66.3653 52.935C65.7789 49.2126 63.9612 45.7943 61.2028 43.2269C58.4444 40.6594 54.9047 39.0912 51.1498 38.7729L52.7132 37.2095L51.7895 36.293Z" fill="black"/>
<path d="M32.8986 56.1048C33.0207 56.2269 33.1864 56.2955 33.3591 56.2955C33.5319 56.2955 33.6975 56.2269 33.8197 56.1048L36.4253 53.4991L35.5042 52.5781L34.1063 53.976C34.4558 50.5646 35.9238 47.3646 38.2817 44.8747C40.6396 42.3847 43.7549 40.7446 47.1422 40.2099L46.935 38.9233C43.2126 39.5097 39.7943 41.3275 37.2269 44.0859C34.6594 46.8443 33.0912 50.3839 32.7729 54.1388L31.2095 52.5754L30.293 53.4991L32.8986 56.1048Z" fill="black"/>
<path d="M47.4991 74.9954L50.1048 72.3898C50.2269 72.2677 50.2955 72.102 50.2955 71.9293C50.2955 71.7566 50.2269 71.5909 50.1048 71.4687L47.4991 68.8631L46.5781 69.7842L47.976 71.1821C44.5646 70.8326 41.3646 69.3646 38.8747 67.0067C36.3847 64.6488 34.7446 61.5335 34.2099 58.1462L32.9233 58.3534C33.5097 62.0758 35.3275 65.4941 38.0859 68.0615C40.8443 70.629 44.3839 72.1972 48.1388 72.5155L46.5754 74.0789L47.4991 74.9954Z" fill="black"/>
<path d="M66.3901 55.1836C66.2679 55.0615 66.1023 54.9929 65.9295 54.9929C65.7568 54.9929 65.5911 55.0615 65.469 55.1836L62.8634 57.7893L63.7845 58.7103L65.1824 57.3124C64.8329 60.7238 63.3648 63.9238 61.0069 66.4137C58.6491 68.9037 55.5338 70.5438 52.1465 71.0785L52.3536 72.3651C56.0761 71.7787 59.4944 69.9609 62.0618 67.2025C64.6292 64.4441 66.1975 60.9045 66.5158 57.1496L68.0792 58.7129L69.0002 57.7919L66.3901 55.1836Z" fill="black"/>
<path d="M52.0818 67.492C52.1501 67.4922 52.218 67.4816 52.2831 67.4607L54.4548 66.7552C54.5946 66.7097 54.7149 66.6183 54.7962 66.4958C54.8774 66.3733 54.9149 66.2269 54.9023 66.0804L54.6998 63.6845L55.7283 62.94L57.9431 63.8734C58.0788 63.9309 58.23 63.9407 58.372 63.9012C58.5139 63.8617 58.6383 63.7752 58.7248 63.6558L60.0667 61.8052C60.1531 61.6862 60.1967 61.5416 60.1904 61.3947C60.1841 61.2478 60.1284 61.1073 60.0321 60.9962L58.4603 59.1775L58.8512 57.9678L61.1923 57.4206C61.3354 57.3871 61.463 57.3062 61.5543 57.191C61.6456 57.0758 61.6952 56.9331 61.6952 56.7861V54.5023C61.6952 54.3553 61.6456 54.2127 61.5543 54.0975C61.463 53.9823 61.3354 53.9014 61.1923 53.8679L58.8512 53.3207L58.4603 52.111L60.0321 50.2923C60.1284 50.1811 60.1841 50.0407 60.1904 49.8938C60.1967 49.7469 60.1531 49.6022 60.0667 49.4833L58.7241 47.6359C58.6377 47.5165 58.5133 47.4301 58.3713 47.3905C58.2293 47.351 58.0781 47.3608 57.9424 47.4183L55.7277 48.3518L54.6991 47.604L54.9017 45.2081C54.9142 45.0616 54.8768 44.9152 54.7955 44.7927C54.7143 44.6702 54.594 44.5787 54.4542 44.5333L52.2831 43.8278C52.1432 43.7823 51.9921 43.7856 51.8543 43.8369C51.7166 43.8882 51.6002 43.9846 51.5242 44.1105L50.2806 46.1683H49.0078L47.7643 44.1105C47.6882 43.9846 47.5719 43.8882 47.4341 43.8369C47.2963 43.7856 47.1452 43.7823 47.0054 43.8278L44.8336 44.5333C44.6938 44.5787 44.5735 44.6702 44.4923 44.7927C44.411 44.9152 44.3736 45.0616 44.3861 45.2081L44.5887 47.604L43.5601 48.3518L41.3453 47.4183C41.2097 47.3608 41.0585 47.351 40.9165 47.3905C40.7745 47.4301 40.6501 47.5165 40.5637 47.6359L39.2218 49.4833C39.1354 49.6022 39.0918 49.7469 39.098 49.8938C39.1043 50.0407 39.1601 50.1811 39.2563 50.2923L40.8281 52.111L40.4373 53.3207L38.0961 53.8679C37.953 53.9014 37.8255 53.9823 37.7342 54.0975C37.6429 54.2127 37.5932 54.3553 37.5933 54.5023V56.7861C37.5932 56.9331 37.6429 57.0758 37.7342 57.191C37.8255 57.3062 37.953 57.3871 38.0961 57.4206L40.4373 57.9678L40.8281 59.1775L39.2563 60.9962C39.1601 61.1073 39.1043 61.2478 39.098 61.3947C39.0918 61.5416 39.1354 61.6862 39.2218 61.8052L40.5643 63.6526C40.6508 63.7719 40.7752 63.8584 40.9171 63.8979C41.0591 63.9375 41.2103 63.9277 41.346 63.8702L43.5608 62.9367L44.5893 63.6845L44.3867 66.0804C44.3742 66.2269 44.4117 66.3733 44.4929 66.4958C44.5742 66.6183 44.6945 66.7097 44.8343 66.7552L47.006 67.4607C47.1459 67.5061 47.297 67.5029 47.4348 67.4516C47.5725 67.4003 47.6889 67.3038 47.7649 67.178L49.0085 65.1202H50.2813L51.5248 67.178C51.5828 67.2738 51.6646 67.353 51.7621 67.408C51.8597 67.463 51.9698 67.4919 52.0818 67.492ZM50.6487 63.8174H48.6404C48.5284 63.8175 48.4182 63.8465 48.3207 63.9016C48.2231 63.9568 48.1414 64.0361 48.0835 64.132L46.9161 66.0615L45.728 65.6758L45.9182 63.4292C45.9277 63.3174 45.9082 63.205 45.8615 63.103C45.8148 63.001 45.7426 62.9127 45.6518 62.8468L44.0285 61.6678C43.9378 61.6018 43.8316 61.5604 43.7203 61.5475C43.6089 61.5346 43.4961 61.5507 43.3927 61.5942L41.3141 62.4696L40.5793 61.458L42.0541 59.752C42.128 59.6675 42.1788 59.5654 42.2017 59.4555C42.2245 59.3456 42.2185 59.2316 42.1844 59.1247L41.5642 57.2167C41.5296 57.11 41.4679 57.0141 41.3853 56.9382C41.3027 56.8623 41.2019 56.809 41.0926 56.7835L38.8961 56.2696V55.0189L41.0913 54.5056C41.2006 54.4801 41.3014 54.4268 41.384 54.3509C41.4666 54.2751 41.5283 54.1791 41.5629 54.0724L42.183 52.1644C42.2172 52.0575 42.2232 51.9436 42.2004 51.8337C42.1775 51.7238 42.1267 51.6216 42.0528 51.5371L40.578 49.8311L41.3128 48.8195L43.3908 49.695C43.4941 49.7385 43.6069 49.7545 43.7183 49.7416C43.8297 49.7287 43.9358 49.6873 44.0265 49.6214L45.6498 48.4423C45.7406 48.3764 45.8129 48.2882 45.8595 48.1862C45.9062 48.0841 45.9257 47.9718 45.9162 47.86L45.728 45.6126L46.9161 45.2263L48.0809 47.1565C48.1388 47.2524 48.2205 47.3317 48.318 47.3868C48.4156 47.442 48.5257 47.471 48.6378 47.4711H50.6454C50.7575 47.471 50.8676 47.442 50.9652 47.3868C51.0627 47.3317 51.1444 47.2524 51.2024 47.1565L52.369 45.227L53.5579 45.6133L53.3702 47.86C53.3607 47.9718 53.3803 48.0841 53.427 48.1862C53.4736 48.2882 53.5459 48.3764 53.6367 48.4423L55.26 49.6214C55.3506 49.6873 55.4568 49.7287 55.5682 49.7416C55.6796 49.7545 55.7924 49.7385 55.8957 49.695L57.9744 48.8195L58.7092 49.8311L57.2344 51.5404C57.1604 51.6249 57.1096 51.727 57.0868 51.8369C57.064 51.9468 57.0699 52.0608 57.1041 52.1677L57.7242 54.0757C57.7589 54.1824 57.8205 54.2783 57.9031 54.3542C57.9858 54.4301 58.0866 54.4834 58.1958 54.5088L60.3911 55.0221V56.2728L58.1958 56.7861C58.0866 56.8116 57.9858 56.8649 57.9031 56.9408C57.8205 57.0167 57.7589 57.1126 57.7242 57.2193L57.1041 59.1273C57.0699 59.2342 57.064 59.3482 57.0868 59.4581C57.1096 59.568 57.1604 59.6701 57.2344 59.7546L58.7092 61.4606L57.9744 62.4722L55.8977 61.5935C55.7943 61.55 55.6815 61.534 55.5701 61.5468C55.4588 61.5597 55.3526 61.6012 55.2619 61.6671L53.6386 62.8462C53.5478 62.9121 53.4756 63.0003 53.4289 63.1023C53.3822 63.2044 53.3627 63.3167 53.3722 63.4285L53.5624 65.6752L52.3736 66.0615L51.2076 64.132C51.1494 64.0357 51.0673 63.9561 50.9693 63.901C50.8712 63.8459 50.7605 63.8171 50.648 63.8174H50.6487Z" fill="black"/>
<path d="M56.1584 55.6442C56.1584 54.3558 55.7764 53.0964 55.0606 52.0252C54.3449 50.9539 53.3275 50.119 52.1372 49.626C50.9469 49.1329 49.6372 49.0039 48.3736 49.2553C47.11 49.5066 45.9493 50.127 45.0383 51.038C44.1273 51.949 43.5069 53.1097 43.2555 54.3733C43.0042 55.6369 43.1332 56.9467 43.6262 58.137C44.1193 59.3273 44.9542 60.3446 46.0254 61.0604C47.0966 61.7762 48.3561 62.1582 49.6444 62.1582C51.3715 62.1563 53.0272 61.4694 54.2484 60.2482C55.4696 59.027 56.1565 57.3712 56.1584 55.6442ZM49.6444 60.8554C48.6137 60.8554 47.6062 60.5498 46.7492 59.9771C45.8922 59.4045 45.2243 58.5906 44.8299 57.6384C44.4354 56.6862 44.3322 55.6384 44.5333 54.6275C44.7344 53.6166 45.2307 52.6881 45.9595 51.9593C46.6883 51.2305 47.6169 50.7341 48.6277 50.5331C49.6386 50.332 50.6864 50.4352 51.6387 50.8296C52.5909 51.224 53.4048 51.892 53.9774 52.749C54.55 53.6059 54.8556 54.6135 54.8556 55.6442C54.8541 57.0258 54.3045 58.3504 53.3276 59.3273C52.3506 60.3043 51.026 60.8538 49.6444 60.8554Z" fill="black"/>
<path d="M56.2454 74.0405C56.6766 73.8855 57.1046 73.7148 57.5156 73.535L56.9945 72.3423C56.6101 72.511 56.2128 72.668 55.8076 72.8139L56.2454 74.0405Z" fill="black"/>
<path d="M58.1592 71.7796L58.7669 72.9319C63.2014 70.5993 66.5663 66.6474 68.1621 61.8978L66.9284 61.4802C65.4387 65.9134 62.2981 69.602 58.1592 71.7796Z" fill="black"/>
<path d="M43.0427 37.248C42.6115 37.4031 42.1835 37.5737 41.7725 37.7535L42.2936 38.9463C42.6779 38.7775 43.0753 38.6206 43.4804 38.4746L43.0427 37.248Z" fill="black"/>
<path d="M41.1289 39.509L40.5244 38.3567C36.0888 40.6887 32.7226 44.6406 31.126 49.3908L32.3597 49.8084C33.8494 45.3752 36.9901 41.6866 41.1289 39.509Z" fill="black"/>
<path d="M50.2955 54.9929H48.9927V56.2957H50.2955V54.9929Z" fill="black"/>
<path d="M52.9014 54.9929H51.5986V56.2957H52.9014V54.9929Z" fill="black"/>
<path d="M47.69 54.9929H46.3872V56.2957H47.69V54.9929Z" fill="black"/>
</svg>
