<svg width="99" height="92" viewBox="0 0 99 92" fill="none" xmlns="http://www.w3.org/2000/svg">
<path d="M92.3067 41.3347C90.5399 55.6387 80.9741 68.6985 69.224 75.064C57.4738 81.4293 43.9642 81.531 32.4031 77.0447C24.15 73.8423 16.5512 68.1749 12.1977 59.7133C7.84424 51.2519 7.2072 39.7592 11.9247 30.6046C13.7068 27.1468 16.35 23.9866 19.6539 22.7485C24.9295 20.7716 30.0844 24.0863 34.4471 27.2873C38.81 30.4884 43.9525 33.8164 49.2335 31.8651C53.2915 30.366 56.1867 26.1545 59.617 23.1203C65.45 17.9611 73.3594 16.2176 79.8952 18.6505C80.803 18.9884 81.6803 19.4054 82.5211 19.8937C89.0626 23.693 92.7749 31.6252 92.3564 40.3051L92.3067 41.3347Z" fill="#F2C94C"/>
<path d="M43.7344 45.3501C42.325 45.3501 41.1719 46.5201 41.1719 47.9501C41.1719 49.3801 42.325 50.5501 43.7344 50.5501C45.1437 50.5501 46.2969 49.3801 46.2969 47.9501C46.2969 46.5201 45.1437 45.3501 43.7344 45.3501ZM43.7344 49.2501C43.0297 49.2501 42.4531 48.6651 42.4531 47.9501C42.4531 47.2351 43.0297 46.6501 43.7344 46.6501C44.4391 46.6501 45.0156 47.2351 45.0156 47.9501C45.0156 48.6651 44.4391 49.2501 43.7344 49.2501Z" fill="black"/>
<path d="M51.1016 46.195C46.9375 42.295 40.5312 42.295 36.3031 46.195L34.4453 47.95L36.3031 49.705C40.4672 53.605 46.8734 53.605 51.1016 49.705L52.9594 47.95L51.1016 46.195ZM50.2688 48.73C46.5531 52.175 40.9156 52.175 37.2641 48.73L36.3672 47.95L37.2641 47.17C40.9797 43.725 46.6172 43.725 50.2688 47.17L51.1656 47.95L50.2688 48.73Z" fill="black"/>
<path d="M68.0142 69.0749L58.9173 59.8449C58.4689 59.3899 57.8283 59.2599 57.2517 59.4549L54.2408 56.3999C58.8533 50.4849 57.8923 41.8399 52.0627 37.1599C46.233 32.4799 37.7767 33.4549 33.1002 39.4349C28.4236 45.4149 29.4486 53.9299 35.3423 58.6099C40.2752 62.5749 47.1939 62.5749 52.1267 58.6099L55.1377 61.6649C54.9455 62.2499 55.0736 62.8999 55.522 63.3549L64.6189 72.5849C65.5798 73.5599 67.1173 73.5599 68.0783 72.5849C68.9752 71.6099 68.9752 70.0499 68.0142 69.0749ZM31.5627 47.9499C31.5627 41.1249 37.008 35.5999 43.7345 35.5999C50.4611 35.5999 55.9064 41.1249 55.9064 47.9499C55.9064 54.7749 50.4611 60.2999 43.7345 60.2999C37.008 60.2999 31.5627 54.7749 31.5627 47.9499ZM53.0236 57.7649C53.1517 57.6349 53.2798 57.5049 53.408 57.3749L56.2908 60.2999L55.9064 60.6899L53.0236 57.7649ZM66.2845 71.9999C65.9642 71.9999 65.6439 71.8699 65.4517 71.6749L56.3548 62.4449C56.2267 62.3149 56.2267 62.1849 56.3548 62.0549L56.8033 61.5999L57.1877 61.2099L57.6361 60.7549C57.7642 60.6249 57.8923 60.6249 58.0205 60.7549L67.1173 69.9849C67.5658 70.4399 67.5658 71.2199 67.1173 71.6749C66.8611 71.8699 66.6048 71.9999 66.2845 71.9999Z" fill="black"/>
<path d="M43.7344 36.25C37.3922 36.25 32.2031 41.515 32.2031 47.95C32.2031 54.385 37.3922 59.65 43.7344 59.65C50.0766 59.65 55.2656 54.385 55.2656 47.95C55.2656 41.515 50.0766 36.25 43.7344 36.25ZM43.7344 58.35C38.0969 58.35 33.4844 53.67 33.4844 47.95C33.4844 42.23 38.0969 37.55 43.7344 37.55C49.3719 37.55 53.9844 42.23 53.9844 47.95C53.9844 53.67 49.3719 58.35 43.7344 58.35Z" fill="black"/>
<path d="M64.2344 40.8V63.55H65.5156V40.8C65.5156 38.98 64.1062 37.55 62.3125 37.55H55.2656V38.85H62.3125C63.4016 38.85 64.2344 39.695 64.2344 40.8Z" fill="black"/>
<path d="M34.7656 66.8V60.3H33.4844V66.8C33.4844 68.62 34.8938 70.05 36.6875 70.05H59.1094V68.75H36.6875C35.5984 68.75 34.7656 67.905 34.7656 66.8Z" fill="black"/>
<path d="M62.9531 40.8H57.8281V42.1H62.9531V40.8Z" fill="black"/>
<path d="M62.9531 44.05H57.8281V45.35H62.9531V44.05Z" fill="black"/>
<path d="M62.9531 47.3H57.8281V48.6001H62.9531V47.3Z" fill="black"/>
<path d="M62.9531 50.55H57.8281V51.85H62.9531V50.55Z" fill="black"/>
<path d="M62.9531 53.8H56.5469V55.1H62.9531V53.8Z" fill="black"/>
<path d="M62.9531 57.05H56.5469V58.35H62.9531V57.05Z" fill="black"/>
<path d="M62.9531 60.3H61.0312V61.6H62.9531V60.3Z" fill="black"/>
<path d="M53.3438 62.25H36.0469V63.55H53.3438V62.25Z" fill="black"/>
<path d="M55.9062 65.5H36.0469V66.8H55.9062V65.5Z" fill="black"/>
<path d="M49.5 53.8H37.9688V55.1H49.5V53.8Z" fill="black"/>
<path d="M49.5 40.8H37.9688V42.1H49.5V40.8Z" fill="black"/>
</svg>
