<svg width="41" height="43" viewBox="0 0 41 43" fill="none" xmlns="http://www.w3.org/2000/svg">
<path d="M40.2293 9.03093H16.4411C15.1053 7.52696 13.2043 6.5416 11.0464 6.5416C7.03885 6.5416 3.80201 9.80885 3.80201 13.854V18.3141H0.770677C0.359649 18.3141 0 18.6771 0 19.092V31.0201C0 33.7169 2.20927 35.9469 4.88095 35.9469H17.1604C19.8321 35.9469 22.0414 33.7169 22.0414 31.0201V28.064H40.2293C40.6404 28.064 41 27.701 41 27.2861V9.80885C41 9.3421 40.6404 9.03093 40.2293 9.03093ZM5.34336 13.854C5.34336 10.6905 7.91228 8.09743 11.0464 8.09743C12.8446 8.09743 14.386 8.92721 15.4649 10.2237C15.4649 10.2237 15.4649 10.2756 15.5163 10.2756C16.287 11.261 16.7494 12.5056 16.7494 13.854V18.3141H15.7732V14.1652C15.7732 11.5203 13.6667 9.39396 11.0464 9.39396C8.42607 9.39396 6.31955 11.5203 6.31955 14.1652V18.3141H5.39474V13.854H5.34336ZM7.80952 18.2622V14.1133C7.80952 12.35 9.24812 10.8979 10.995 10.8979C12.7419 10.8979 14.1805 12.35 14.1805 14.1133V18.2622H7.80952ZM20.5 30.9682C20.5 32.8352 19.01 34.3392 17.1604 34.3392H4.88095C3.03133 34.3392 1.54135 32.8352 1.54135 30.9682V19.8181H20.5V30.9682ZM39.4586 26.4563H22.0414V23.6039H27.7444C28.1554 23.6039 28.515 23.2409 28.515 22.826C28.515 22.4111 28.1554 22.0481 27.7444 22.0481H22.0414V20.3367H24.5075C24.9185 20.3367 25.2782 19.9736 25.2782 19.5588C25.2782 19.1439 24.9185 18.7808 24.5075 18.7808H21.99C21.8872 18.4697 21.5789 18.2622 21.2707 18.2622H18.2393V13.8022C18.2393 12.6094 17.9311 11.5203 17.4687 10.5349H39.4586V26.4563ZM31.6491 17.8992C32.2657 17.8992 32.9336 17.6917 33.4474 17.3287C33.9612 17.6917 34.5777 17.8992 35.2456 17.8992C36.9411 17.8992 38.3797 16.4989 38.3797 14.7357C38.3797 12.9724 36.9925 11.5721 35.2456 11.5721C34.6291 11.5721 33.9612 11.7796 33.4474 12.1426C32.9336 11.7796 32.317 11.5721 31.6491 11.5721C29.9023 11.5721 28.515 12.9724 28.515 14.7357C28.515 16.4989 29.9023 17.8992 31.6491 17.8992ZM31.6491 13.128C32.1115 13.128 32.5226 13.3354 32.8308 13.6984C33.1391 14.0615 33.7043 14.0615 34.0125 13.6984C34.3208 13.3354 34.7318 13.128 35.1942 13.128C36.0677 13.128 36.787 13.854 36.787 14.7357C36.787 15.6173 36.0677 16.3434 35.1942 16.3434C34.7318 16.3434 34.3208 16.1359 34.0125 15.7729C33.8584 15.6173 33.6529 15.5136 33.4474 15.5136C33.2419 15.5136 32.985 15.6173 32.8822 15.7729C32.5739 16.1359 32.1629 16.3434 31.7005 16.3434C30.8271 16.3434 30.1078 15.6173 30.1078 14.7357C30.1078 13.854 30.7757 13.128 31.6491 13.128ZM26.203 19.6106C26.203 19.1957 26.5627 18.8327 26.9737 18.8327H30.4674C30.8784 18.8327 31.2381 19.1957 31.2381 19.6106C31.2381 20.0255 30.8784 20.3885 30.4674 20.3885H26.9737C26.5627 20.3885 26.203 20.0255 26.203 19.6106ZM37.2494 19.6106C37.2494 20.0255 36.8897 20.3885 36.4787 20.3885H32.985C32.5739 20.3885 32.2143 20.0255 32.2143 19.6106C32.2143 19.1957 32.5739 18.8327 32.985 18.8327H36.4787C36.8897 18.8327 37.2494 19.1439 37.2494 19.6106ZM11.0464 22.4111C9.45363 22.4111 8.16917 23.7076 8.16917 25.3153C8.16917 26.6637 9.04261 27.7528 10.2757 28.1158V31.435C10.2757 31.8498 10.6353 32.2129 11.0464 32.2129C11.4574 32.2129 11.817 31.8498 11.817 31.435V28.1158C12.9987 27.7528 13.9236 26.6637 13.9236 25.3153C13.8722 23.7076 12.5877 22.4111 11.0464 22.4111ZM11.0464 26.6637C10.3271 26.6637 9.71053 26.0414 9.71053 25.3153C9.71053 24.5893 10.3271 23.9669 11.0464 23.9669C11.7657 23.9669 12.3822 24.5893 12.3822 25.3153C12.3822 26.0414 11.7657 26.6637 11.0464 26.6637ZM12.7419 5.19321C12.5877 5.03762 12.5363 4.83018 12.5363 4.62274L12.6905 1.4592C12.6905 1.04431 13.0501 0.681287 13.5125 0.733148C13.9236 0.733148 14.2832 1.09618 14.2318 1.56293L14.1805 2.91132C16.5439 0.940592 19.4724 -0.0966308 22.6065 0.00709158C25.9461 0.110814 29.0288 1.56293 31.2895 4.0004C31.5977 4.31157 31.5464 4.83018 31.2381 5.08949C31.084 5.24507 30.8784 5.29693 30.7243 5.29693C30.5188 5.29693 30.3133 5.19321 30.1591 5.03762C28.1554 2.85946 25.4837 1.61479 22.5551 1.51107C19.8835 1.40734 17.3659 2.28898 15.3622 3.94854L16.5952 4.0004C17.0063 4.0004 17.3659 4.36343 17.3145 4.83018C17.3145 5.24507 16.9549 5.55624 16.5439 5.55624C16.5439 5.55624 16.5439 5.55624 16.4925 5.55624L13.307 5.45251C13.1015 5.40065 12.896 5.34879 12.7419 5.19321ZM31.2895 37.762C31.4436 37.9176 31.495 38.125 31.495 38.3325L31.3409 41.496C31.3409 41.9109 30.9812 42.2221 30.5702 42.2221H30.5188C30.1078 42.2221 29.7481 41.8591 29.7995 41.3923L29.8509 40.0439C27.5902 41.9628 24.8158 43 21.8872 43C21.7331 43 21.5789 43 21.4248 43C18.0852 42.8963 15.0025 41.4442 12.7419 39.0067C12.4336 38.6955 12.485 38.1769 12.7932 37.9176C13.1015 37.6583 13.6153 37.6583 13.8722 37.9695C15.8759 40.1476 18.5476 41.3923 21.4762 41.496C24.1479 41.5997 26.6654 40.7181 28.6692 39.0586L27.4361 39.0067C27.0251 39.0067 26.6654 38.6437 26.7168 38.1769C26.7168 37.762 27.0764 37.4509 27.4875 37.4509C27.4875 37.4509 27.4875 37.4509 27.5388 37.4509L30.7243 37.5546C30.9298 37.5546 31.1353 37.6064 31.2895 37.762Z" fill="#404040"/>
</svg>
