<svg width="52" height="65" viewBox="0 0 52 65" fill="none" xmlns="http://www.w3.org/2000/svg">
<path d="M10.6824 12.3392C11.3434 12.3392 11.9896 12.1432 12.5392 11.776C13.0888 11.4087 13.5171 10.8868 13.7701 10.2761C14.0231 9.66539 14.0892 8.99341 13.9603 8.34511C13.8313 7.69681 13.513 7.1013 13.0456 6.6339C12.5782 6.16651 11.9827 5.8482 11.3344 5.71925C10.6861 5.59029 10.0141 5.65648 9.40346 5.90943C8.79277 6.16239 8.27081 6.59075 7.90357 7.14035C7.53634 7.68995 7.34033 8.33611 7.34033 8.99711C7.34138 9.88317 7.69383 10.7326 8.32037 11.3592C8.9469 11.9857 9.79636 12.3381 10.6824 12.3392Z" fill="#404040"/>
<path d="M35.7974 12.8276H33.7622V18.847H35.7974V12.8276Z" fill="#404040"/>
<path d="M49.4391 23.3162H20.1035V25.0878H49.4391V23.3162Z" fill="#404040"/>
<path d="M2.56055 18.6334V27.4113C2.56604 27.7298 2.69642 28.0334 2.9236 28.2567C3.15079 28.48 3.45659 28.6051 3.77514 28.6051C4.0937 28.6051 4.3995 28.48 4.62668 28.2567C4.85387 28.0334 4.98425 27.7298 4.98974 27.4113V19.5503C4.98974 19.4649 5.00655 19.3804 5.03922 19.3015C5.07188 19.2227 5.11976 19.151 5.18012 19.0907C5.24048 19.0303 5.31213 18.9824 5.391 18.9498C5.46986 18.9171 5.55438 18.9003 5.63974 18.9003C5.7251 18.9003 5.80962 18.9171 5.88849 18.9498C5.96735 18.9824 6.039 19.0303 6.09936 19.0907C6.15972 19.151 6.2076 19.2227 6.24026 19.3015C6.27293 19.3804 6.28974 19.4649 6.28974 19.5503V27.4113C6.28974 27.4601 6.28505 27.5077 6.28252 27.5557C6.2862 27.5797 6.28861 27.6038 6.28974 27.628V46.8145C6.28974 47.3108 6.48689 47.7868 6.83783 48.1377C7.18876 48.4887 7.66473 48.6858 8.16102 48.6858C8.65731 48.6858 9.13328 48.4887 9.48421 48.1377C9.83514 47.7868 10.0323 47.3108 10.0323 46.8145V31.8862C10.0323 31.7138 10.1008 31.5485 10.2227 31.4266C10.3446 31.3047 10.5099 31.2362 10.6823 31.2362C10.8547 31.2362 11.02 31.3047 11.1419 31.4266C11.2638 31.5485 11.3323 31.7138 11.3323 31.8862V46.8163C11.3323 47.3126 11.5294 47.7886 11.8804 48.1395C12.2313 48.4905 12.7073 48.6876 13.2036 48.6876C13.6999 48.6876 14.1758 48.4905 14.5268 48.1395C14.8777 47.7886 15.0749 47.3126 15.0749 46.8163V27.6287C15.076 27.6045 15.0784 27.5804 15.0821 27.5565C15.0795 27.5081 15.0749 27.4604 15.0749 27.412V19.5503C15.0749 19.3779 15.1433 19.2126 15.2652 19.0907C15.3871 18.9688 15.5525 18.9003 15.7249 18.9003C15.8972 18.9003 16.0626 18.9688 16.1845 19.0907C16.3064 19.2126 16.3749 19.3779 16.3749 19.5503V27.4113C16.3803 27.7298 16.5107 28.0334 16.7379 28.2567C16.9651 28.48 17.2709 28.6051 17.5894 28.6051C17.908 28.6051 18.2138 28.48 18.441 28.2567C18.6682 28.0334 18.7986 27.7298 18.804 27.4113V18.6334C18.803 17.3248 18.2828 16.07 17.3576 15.1445C16.4323 14.219 15.1777 13.6985 13.8691 13.697H7.49513C6.18655 13.6986 4.93204 14.2192 4.0069 15.1447C3.08177 16.0701 2.5616 17.3248 2.56055 18.6334Z" fill="#404040"/>
<path d="M29.2882 16.2947H27.2529V18.847H29.2882V16.2947Z" fill="#404040"/>
<path d="M22.0894 6.38452V22.0163H47.4704V6.38452H22.0894ZM30.5881 19.4972C30.5881 19.6696 30.5196 19.8349 30.3977 19.9568C30.2758 20.0787 30.1105 20.1472 29.9381 20.1472H26.6029C26.4305 20.1472 26.2652 20.0787 26.1433 19.9568C26.0214 19.8349 25.9529 19.6696 25.9529 19.4972V15.6449C25.9529 15.4725 26.0214 15.3071 26.1433 15.1852C26.2652 15.0633 26.4305 14.9949 26.6029 14.9949H29.9381C30.1105 14.9949 30.2758 15.0633 30.3977 15.1852C30.5196 15.3071 30.5881 15.4725 30.5881 15.6449V19.4972ZM37.0975 19.4972C37.0975 19.6696 37.029 19.8349 36.9071 19.9568C36.7852 20.0787 36.6199 20.1472 36.4475 20.1472H33.1141C32.9417 20.1472 32.7764 20.0787 32.6545 19.9568C32.5326 19.8349 32.4641 19.6696 32.4641 19.4972V12.1778C32.4641 12.0054 32.5326 11.8401 32.6545 11.7182C32.7764 11.5963 32.9417 11.5278 33.1141 11.5278H36.4493C36.6217 11.5278 36.787 11.5963 36.9089 11.7182C37.0308 11.8401 37.0993 12.0054 37.0993 12.1778L37.0975 19.4972ZM43.6069 19.4972C43.6069 19.6696 43.5384 19.8349 43.4165 19.9568C43.2946 20.0787 43.1293 20.1472 42.9569 20.1472H39.622C39.4496 20.1472 39.2843 20.0787 39.1624 19.9568C39.0405 19.8349 38.972 19.6696 38.972 19.4972V8.90363C38.972 8.81827 38.9888 8.73375 39.0215 8.65489C39.0542 8.57603 39.102 8.50437 39.1624 8.44401C39.2228 8.38365 39.2944 8.33578 39.3733 8.30311C39.4521 8.27045 39.5367 8.25363 39.622 8.25363H42.9569C43.0422 8.25363 43.1268 8.27045 43.2056 8.30311C43.2845 8.33578 43.3561 8.38365 43.4165 8.44401C43.4769 8.50437 43.5247 8.57603 43.5574 8.65489C43.5901 8.73375 43.6069 8.81827 43.6069 8.90363V19.4972Z" fill="#404040"/>
<path d="M42.3067 9.55322H40.2715V18.8471H42.3067V9.55322Z" fill="#404040"/>
<path d="M49.4396 3.31323H20.1206V5.08484H49.4396V3.31323Z" fill="#404040"/>
<path d="M30.625 46.5028V48.6868H38.1043V46.5028C38.1043 45.511 37.7103 44.5598 37.009 43.8585C36.3077 43.1572 35.3565 42.7632 34.3647 42.7632C33.3728 42.7632 32.4216 43.1572 31.7203 43.8585C31.019 44.5598 30.625 45.511 30.625 46.5028Z" fill="#404040"/>
<path d="M36.6612 38.4464C36.6613 37.9922 36.5266 37.5481 36.2743 37.1703C36.022 36.7926 35.6633 36.4982 35.2436 36.3243C34.8239 36.1504 34.3621 36.1049 33.9166 36.1935C33.471 36.2821 33.0618 36.5009 32.7406 36.8221C32.4193 37.1433 32.2006 37.5526 32.112 37.9981C32.0234 38.4437 32.0689 38.9055 32.2428 39.3251C32.4166 39.7448 32.7111 40.1035 33.0888 40.3558C33.4665 40.6082 33.9106 40.7428 34.3649 40.7427C34.9737 40.7419 35.5572 40.4997 35.9877 40.0692C36.4181 39.6388 36.6603 39.0552 36.6612 38.4464Z" fill="#404040"/>
<path d="M49.4393 46.5028C49.4393 45.511 49.0453 44.5598 48.344 43.8585C47.6426 43.1572 46.6914 42.7632 45.6996 42.7632C44.7078 42.7632 43.7566 43.1572 43.0553 43.8585C42.354 44.5598 41.96 45.511 41.96 46.5028V48.6868H49.4393V46.5028Z" fill="#404040"/>
<path d="M47.9967 38.4464C47.9967 37.9922 47.8621 37.5481 47.6098 37.1704C47.3575 36.7927 46.9988 36.4982 46.5791 36.3243C46.1595 36.1505 45.6977 36.1049 45.2522 36.1935C44.8066 36.2821 44.3974 36.5008 44.0761 36.822C43.7549 37.1431 43.5361 37.5524 43.4475 37.9979C43.3588 38.4434 43.4043 38.9052 43.5781 39.3249C43.7519 39.7446 44.0463 40.1033 44.424 40.3557C44.8017 40.608 45.2457 40.7427 45.7 40.7427C46.3088 40.742 46.8925 40.4998 47.323 40.0694C47.7535 39.6389 47.9958 39.0553 47.9967 38.4464Z" fill="#404040"/>
<path d="M19.29 46.5027V48.6867H26.769V46.5027C26.7593 45.5173 26.3611 44.5756 25.6608 43.8822C24.9606 43.1888 24.015 42.7998 23.0295 42.7998C22.0441 42.7998 21.0984 43.1888 20.3982 43.8822C19.698 44.5756 19.2997 45.5173 19.29 46.5027Z" fill="#404040"/>
<path d="M25.3262 38.4464C25.3263 37.9922 25.1917 37.5481 24.9394 37.1704C24.687 36.7927 24.3284 36.4982 23.9087 36.3243C23.4891 36.1505 23.0273 36.1049 22.5817 36.1935C22.1362 36.2821 21.7269 36.5008 21.4057 36.822C21.0845 37.1431 20.8657 37.5524 20.7771 37.9979C20.6884 38.4434 20.7339 38.9052 20.9077 39.3249C21.0815 39.7446 21.3759 40.1033 21.7536 40.3557C22.1313 40.608 22.5753 40.7427 23.0296 40.7427C23.6384 40.742 24.2221 40.4998 24.6526 40.0694C25.0831 39.6389 25.3254 39.0553 25.3262 38.4464Z" fill="#404040"/>
</svg>
