<svg width="64" height="80" viewBox="0 0 64 80" fill="none" xmlns="http://www.w3.org/2000/svg">
<path d="M36.4197 23.0746C36.7384 22.3655 36.5963 21.568 36.4901 21.0887C36.3826 20.6106 36.2949 19.7063 35.9224 18.9088C35.772 18.585 34.5752 17.561 34.0434 17.3485C33.5115 17.136 33.3637 17.2877 33.0623 17.3037C32.7058 17.3236 32.5375 16.7981 31.5256 16.8512C30.5163 16.7981 30.0901 16.9575 29.7714 17.1175C29.452 17.2775 29.0795 17.5437 28.5477 17.7562C28.0152 17.9687 27.5365 19.033 27.3778 19.3517C27.2178 19.6704 26.7391 20.096 26.6328 20.5748C26.5259 21.0528 26.5259 22.6484 26.6328 23.074C26.101 23.3402 25.6754 25.6263 27.3778 26.4768C27.7496 27.7005 29.1864 30.3597 31.525 30.3597C33.8655 30.3597 35.3016 27.7005 35.6741 26.4768C37.3771 25.6269 36.9509 23.3408 36.4197 23.0746Z" fill="#404040"/>
<path d="M38.1043 31.4406C36.2234 30.8742 35.5693 30.6931 35.2755 30.503C35.0163 30.334 34.6931 30.135 34.4154 30.0588C34.3981 30.112 33.033 35.3235 32.768 36.5472C32.7149 36.4051 32.2886 33.0195 32.1472 32.4524C32.2362 32.3462 32.6253 31.4784 32.768 30.999C32.6253 31.0342 32.1472 31.088 31.5264 31.0867C30.9062 31.088 30.4275 31.0342 30.2861 30.999C30.4275 31.4777 30.8173 32.3456 30.9062 32.4524C30.7648 33.0201 30.3392 36.4057 30.2861 36.5472C30.0198 35.3235 28.6547 30.112 28.6368 30.0588C28.359 30.1356 28.0371 30.334 27.7773 30.503C27.4848 30.6931 26.8288 30.8742 24.9498 31.4406C23.0701 32.0083 20.0749 32.0793 20.2522 39.2409C24.7194 39.2409 31.5264 39.2409 31.5264 39.2409C31.5264 39.2409 38.3334 39.2409 42.8019 39.2409C42.9792 32.0793 39.9834 32.0083 38.1043 31.4406Z" fill="#404040"/>
<path d="M60.167 56.0308L44.8748 40.738C47.2793 37.7319 48.5843 34.0257 48.5843 30.121C48.5843 25.5681 46.8121 21.2878 43.5929 18.0692C40.3737 14.8494 36.094 13.0759 31.5411 13.0759C26.9887 13.0759 22.7084 14.8494 19.4892 18.0692C16.27 21.2878 14.4966 25.5681 14.4966 30.121C14.4966 34.674 16.27 38.9537 19.4892 42.1735C22.7084 45.3914 26.9887 47.1655 31.5411 47.1655C35.4476 47.1655 39.1519 45.8599 42.1593 43.4542L57.4515 58.7476L60.167 56.0308ZM20.1683 41.4938C17.1295 38.4558 15.4572 34.4161 15.4572 30.121C15.4572 25.8241 17.1295 21.7857 20.1683 18.7476C23.2057 15.7095 27.2447 14.0359 31.5411 14.0359C35.838 14.0359 39.8764 15.7095 42.9145 18.7476C49.1865 25.019 49.1865 35.2218 42.9145 41.4938C39.8771 44.5319 35.838 46.2062 31.5411 46.2062C27.2447 46.2062 23.2057 44.5319 20.1683 41.4938Z" fill="#404040"/>
<path d="M59.7381 27.6461C59.9339 27.2129 59.8469 26.7239 59.7829 26.4308C59.7169 26.1377 59.6625 25.5841 59.4341 25.0964C59.3419 24.898 58.6097 24.2701 58.284 24.1402C57.9595 24.0097 57.8699 24.1025 57.6824 24.1133C57.4648 24.1255 57.3611 23.8049 56.7435 23.8356C56.1227 23.8042 55.8641 23.9015 55.6664 23.9981C55.4712 24.0973 55.2433 24.2586 54.9189 24.3892C54.5931 24.5191 54.3006 25.1706 54.1989 25.3671C54.1054 25.5623 53.8097 25.8209 53.7457 26.1153C53.6798 26.4084 53.6798 27.3837 53.7457 27.6455C53.4193 27.8093 53.1595 29.2103 54.1989 29.7306C54.4273 30.4813 55.3093 32.1089 56.7435 32.1089C58.1745 32.1089 59.0558 30.4813 59.2843 29.7306C60.3249 29.2109 60.0657 27.8106 59.7381 27.6461Z" fill="#404040"/>
<path d="M60.7701 32.7719C59.6187 32.4244 59.2174 32.3137 59.0395 32.1959C58.8802 32.0942 58.6811 31.9719 58.5122 31.9246C58.5 31.9585 57.6642 35.1495 57.5029 35.8996C57.4702 35.8113 57.2078 33.739 57.1234 33.3921C57.1765 33.3255 57.4146 32.793 57.5029 32.4999C57.4146 32.5223 57.1234 32.5543 56.7432 32.5543C56.3605 32.5543 56.0686 32.5223 55.9816 32.4999C56.0693 32.793 56.308 33.3255 56.3611 33.3921C56.276 33.739 56.0162 35.8113 55.9816 35.8996C55.8203 35.1495 54.9832 31.9585 54.9723 31.9246C54.8027 31.9719 54.6069 32.0942 54.4475 32.1959C54.267 32.3143 53.8664 32.4244 52.715 32.7719C51.5637 33.1182 49.7269 33.1636 49.8357 37.5495C52.573 37.5495 56.7438 37.5495 56.7438 37.5495C56.7438 37.5495 60.9115 37.5495 63.6494 37.5495C63.7544 33.1636 61.9234 33.1182 60.7701 32.7719Z" fill="#404040"/>
<path d="M9.91065 27.6461C10.1071 27.2129 10.0194 26.7239 9.95545 26.4308C9.89017 26.1377 9.83577 25.5841 9.60729 25.0964C9.51513 24.898 8.78233 24.2701 8.45657 24.1402C8.13209 24.0097 8.04185 24.1025 7.85497 24.1133C7.63737 24.1255 7.53369 23.8049 6.91609 23.8356C6.29529 23.8042 6.03673 23.9015 5.83897 23.9981C5.64441 24.0973 5.41593 24.2586 5.09145 24.3892C4.76569 24.5191 4.47321 25.1706 4.37145 25.3671C4.27737 25.5623 3.98233 25.8209 3.91833 26.1153C3.85241 26.4084 3.85241 27.3837 3.91833 27.6455C3.59193 27.8093 3.33145 29.2103 4.37145 29.7306C4.59929 30.4813 5.48185 32.1089 6.91609 32.1089C8.34649 32.1089 9.22841 30.482 9.45689 29.7306C10.4969 29.2109 10.2377 27.8106 9.91065 27.6461Z" fill="#404040"/>
<path d="M10.9427 32.7719C9.79074 32.4244 9.3901 32.3137 9.21154 32.1959C9.05218 32.0942 8.85378 31.9719 8.68354 31.9246C8.67202 31.9585 7.83618 35.1495 7.6749 35.8996C7.6429 35.8113 7.37986 33.739 7.29538 33.3921C7.3485 33.3255 7.58658 32.793 7.6749 32.4999C7.58658 32.5223 7.29538 32.5543 6.91522 32.5543C6.5325 32.5543 6.24066 32.5223 6.15298 32.4999C6.24066 32.793 6.47938 33.3255 6.5325 33.3921C6.44802 33.739 6.18754 35.8113 6.15298 35.8996C5.9917 35.1495 5.15522 31.9585 5.1437 31.9246C4.9741 31.9719 4.77826 32.0942 4.6189 32.1959C4.43778 32.3143 4.03778 32.4244 2.88578 32.7719C1.73506 33.1182 -0.101736 33.1636 0.00706379 37.5495C2.7437 37.5495 6.91522 37.5495 6.91522 37.5495C6.91522 37.5495 11.0823 37.5495 13.8202 37.5495C13.9271 33.1636 12.0954 33.1182 10.9427 32.7719Z" fill="#404040"/>
</svg>
